<svg xmlns="http://www.w3.org/2000/svg" xmlns:xlink="http://www.w3.org/1999/xlink" width="1024" zoomAndPan="magnify" viewBox="0 0 768 767.999994" height="1024" preserveAspectRatio="xMidYMid meet" version="1.0"><defs><clipPath id="e131d55ad9"><path d="M 91.453125 446 L 691.453125 446 L 691.453125 691.347656 L 91.453125 691.347656 Z M 91.453125 446 " clip-rule="nonzero"/></clipPath><clipPath id="a6222a49a6"><path d="M 91.453125 324 L 691.453125 324 L 691.453125 562 L 91.453125 562 Z M 91.453125 324 " clip-rule="nonzero"/></clipPath><clipPath id="e39a274c91"><path d="M 91.453125 203 L 691.453125 203 L 691.453125 440 L 91.453125 440 Z M 91.453125 203 " clip-rule="nonzero"/></clipPath><clipPath id="579be2456c"><path d="M 91.453125 89.847656 L 691.453125 89.847656 L 691.453125 614 L 91.453125 614 Z M 91.453125 89.847656 " clip-rule="nonzero"/></clipPath></defs><g clip-path="url(#e131d55ad9)"><path fill="#064d6d" d="M 391.445312 691.347656 C 311.472656 691.347656 236.269531 679.550781 179.691406 658.125 C 122.820312 636.585938 91.5 607.835938 91.492188 577.164062 L 91.492188 447.222656 C 91.492188 446.695312 91.921875 446.265625 92.449219 446.265625 C 92.980469 446.265625 93.410156 446.695312 93.410156 447.222656 C 93.410156 470.265625 111.933594 492.433594 146.980469 511.335938 C 202.832031 541.488281 294.222656 559.492188 391.445312 559.492188 C 488.671875 559.492188 580.058594 541.488281 635.914062 511.335938 C 670.960938 492.433594 689.484375 470.265625 689.484375 447.222656 C 689.484375 446.695312 689.914062 446.265625 690.441406 446.265625 C 690.972656 446.265625 691.402344 446.695312 691.402344 447.222656 L 691.402344 577.164062 C 691.394531 607.835938 660.074219 636.585938 603.203125 658.125 C 546.625 679.550781 471.421875 691.347656 391.445312 691.347656 Z M 632.042969 550.378906 C 615.28125 550.378906 601.644531 564.011719 601.644531 580.773438 C 601.644531 597.53125 615.28125 611.164062 632.042969 611.164062 C 648.804688 611.164062 662.441406 597.53125 662.441406 580.773438 C 662.441406 564.011719 648.804688 550.378906 632.042969 550.378906 Z M 632.042969 550.378906 " fill-opacity="1" fill-rule="nonzero"/></g><path fill="#064d6d" d="M 636.371094 512.183594 C 582.296875 541.371094 492.753906 560.449219 391.445312 560.449219 C 290.136719 560.449219 200.597656 541.371094 146.523438 512.183594 C 112.441406 493.800781 92.449219 471.402344 92.449219 447.222656 L 92.449219 577.160156 L 92.453125 577.160156 C 92.464844 639.695312 226.324219 690.390625 391.445312 690.390625 C 556.570312 690.390625 690.429688 639.695312 690.441406 577.160156 L 690.441406 447.222656 C 690.441406 471.402344 670.449219 493.800781 636.371094 512.183594 Z M 632.042969 612.125 C 614.726562 612.125 600.6875 598.085938 600.6875 580.769531 C 600.6875 563.457031 614.726562 549.417969 632.042969 549.417969 C 649.363281 549.417969 663.402344 563.457031 663.402344 580.769531 C 663.402344 598.085938 649.363281 612.125 632.042969 612.125 Z M 632.042969 612.125 " fill-opacity="1" fill-rule="nonzero"/><g clip-path="url(#a6222a49a6)"><path fill="#0a699e" d="M 391.445312 561.410156 C 293.917969 561.410156 202.1875 543.320312 146.066406 513.027344 C 110.363281 493.769531 91.492188 471.011719 91.492188 447.222656 L 91.492188 325.640625 C 91.492188 325.109375 91.921875 324.679688 92.449219 324.679688 C 92.980469 324.679688 93.410156 325.109375 93.410156 325.640625 C 93.410156 348.679688 111.933594 370.851562 146.980469 389.753906 C 202.832031 419.90625 294.222656 437.910156 391.445312 437.910156 C 488.671875 437.910156 580.058594 419.90625 635.914062 389.753906 C 670.960938 370.851562 689.484375 348.679688 689.484375 325.640625 C 689.484375 325.109375 689.914062 324.679688 690.441406 324.679688 C 690.972656 324.679688 691.402344 325.109375 691.402344 325.640625 L 691.402344 447.222656 C 691.402344 471.015625 672.53125 493.769531 636.824219 513.027344 C 580.707031 543.320312 488.972656 561.410156 391.445312 561.410156 Z M 632.042969 428.796875 C 615.28125 428.796875 601.644531 442.429688 601.644531 459.1875 C 601.644531 475.945312 615.28125 489.582031 632.042969 489.582031 C 648.804688 489.582031 662.441406 475.945312 662.441406 459.1875 C 662.441406 442.429688 648.804688 428.796875 632.042969 428.796875 Z M 632.042969 428.796875 " fill-opacity="1" fill-rule="nonzero"/></g><path fill="#0a699e" d="M 636.371094 390.597656 C 582.296875 419.789062 492.753906 438.867188 391.445312 438.867188 C 290.136719 438.867188 200.597656 419.789062 146.523438 390.597656 C 112.441406 372.214844 92.449219 349.816406 92.449219 325.640625 L 92.449219 447.222656 C 92.449219 471.402344 112.441406 493.800781 146.523438 512.183594 C 200.597656 541.371094 290.136719 560.449219 391.445312 560.449219 C 492.753906 560.449219 582.296875 541.371094 636.371094 512.183594 C 670.449219 493.800781 690.441406 471.402344 690.441406 447.222656 L 690.441406 325.640625 C 690.441406 349.816406 670.449219 372.214844 636.371094 390.597656 Z M 632.042969 490.539062 C 614.726562 490.539062 600.6875 476.503906 600.6875 459.1875 C 600.6875 441.871094 614.726562 427.835938 632.042969 427.835938 C 649.363281 427.835938 663.402344 441.871094 663.402344 459.1875 C 663.402344 476.503906 649.363281 490.539062 632.042969 490.539062 Z M 632.042969 490.539062 " fill-opacity="1" fill-rule="nonzero"/><g clip-path="url(#e39a274c91)"><path fill="#1986cf" d="M 391.445312 439.828125 C 293.917969 439.828125 202.1875 421.738281 146.066406 391.441406 C 110.363281 372.183594 91.492188 349.429688 91.492188 325.640625 L 91.492188 204.058594 C 91.492188 203.527344 91.921875 203.097656 92.449219 203.097656 C 92.980469 203.097656 93.410156 203.527344 93.410156 204.058594 C 93.410156 227.097656 111.933594 249.269531 146.980469 268.171875 C 202.832031 298.324219 294.222656 316.324219 391.445312 316.324219 C 488.671875 316.324219 580.058594 298.324219 635.914062 268.171875 C 670.960938 249.269531 689.484375 227.097656 689.484375 204.058594 C 689.484375 203.527344 689.914062 203.097656 690.441406 203.097656 C 690.972656 203.097656 691.402344 203.527344 691.402344 204.058594 L 691.402344 325.640625 C 691.402344 349.429688 672.53125 372.183594 636.824219 391.441406 C 580.707031 421.738281 488.976562 439.828125 391.445312 439.828125 Z M 632.042969 307.210938 C 615.28125 307.210938 601.644531 320.847656 601.644531 337.605469 C 601.644531 354.363281 615.28125 367.996094 632.042969 367.996094 C 648.804688 367.996094 662.441406 354.363281 662.441406 337.605469 C 662.441406 320.847656 648.804688 307.210938 632.042969 307.210938 Z M 632.042969 307.210938 " fill-opacity="1" fill-rule="nonzero"/></g><path fill="#1986cf" d="M 636.371094 269.015625 C 582.296875 298.207031 492.753906 317.285156 391.445312 317.285156 C 290.136719 317.285156 200.597656 298.207031 146.523438 269.015625 C 112.441406 250.632812 92.449219 228.234375 92.449219 204.058594 L 92.449219 325.640625 C 92.449219 349.816406 112.441406 372.214844 146.523438 390.597656 C 200.597656 419.789062 290.136719 438.867188 391.445312 438.867188 C 492.753906 438.867188 582.296875 419.789062 636.371094 390.597656 C 670.449219 372.214844 690.441406 349.816406 690.441406 325.640625 L 690.441406 204.058594 C 690.441406 228.234375 670.449219 250.632812 636.371094 269.015625 Z M 632.042969 368.957031 C 614.726562 368.957031 600.6875 354.917969 600.6875 337.605469 C 600.6875 320.289062 614.726562 306.253906 632.042969 306.253906 C 649.363281 306.253906 663.402344 320.289062 663.402344 337.605469 C 663.402344 354.917969 649.363281 368.957031 632.042969 368.957031 Z M 632.042969 368.957031 " fill-opacity="1" fill-rule="nonzero"/><g clip-path="url(#579be2456c)"><path fill="#a4b9fb" d="M 632.042969 613.082031 C 614.222656 613.082031 599.726562 598.589844 599.726562 580.773438 C 599.726562 562.953125 614.222656 548.460938 632.042969 548.460938 C 649.863281 548.460938 664.359375 562.953125 664.359375 580.773438 C 664.359375 598.589844 649.863281 613.082031 632.042969 613.082031 Z M 632.042969 491.5 C 614.222656 491.5 599.726562 477.003906 599.726562 459.1875 C 599.726562 441.371094 614.222656 426.875 632.042969 426.875 C 649.863281 426.875 664.359375 441.371094 664.359375 459.1875 C 664.359375 477.003906 649.863281 491.5 632.042969 491.5 Z M 632.042969 369.914062 C 614.222656 369.914062 599.726562 355.421875 599.726562 337.605469 C 599.726562 319.789062 614.222656 305.292969 632.042969 305.292969 C 649.863281 305.292969 664.359375 319.789062 664.359375 337.605469 C 664.359375 355.421875 649.863281 369.914062 632.042969 369.914062 Z M 391.445312 318.242188 C 293.917969 318.242188 202.1875 300.15625 146.066406 269.859375 C 110.363281 250.601562 91.492188 227.847656 91.492188 204.058594 C 91.492188 202.714844 91.542969 201.480469 91.644531 200.285156 C 94.171875 170.425781 126.585938 142.578125 182.921875 121.875 C 239.113281 101.222656 313.167969 89.847656 391.445312 89.847656 C 469.722656 89.847656 543.78125 101.222656 599.972656 121.875 C 656.304688 142.578125 688.722656 170.425781 691.246094 200.285156 C 691.351562 201.476562 691.402344 202.710938 691.402344 204.058594 C 691.402344 227.847656 672.53125 250.601562 636.824219 269.859375 C 580.707031 300.15625 488.972656 318.242188 391.445312 318.242188 Z M 391.445312 318.242188 " fill-opacity="1" fill-rule="nonzero"/></g><path fill="#a4b9fb" d="M 92.449219 204.058594 C 92.449219 202.820312 92.492188 201.605469 92.601562 200.367188 C 97.746094 139.53125 229.574219 90.808594 391.445312 90.808594 C 553.316406 90.808594 685.144531 139.53125 690.289062 200.367188 C 690.398438 201.605469 690.441406 202.820312 690.441406 204.058594 C 690.441406 228.234375 670.449219 250.632812 636.371094 269.015625 C 582.296875 298.207031 492.753906 317.285156 391.445312 317.285156 C 290.136719 317.285156 200.597656 298.207031 146.523438 269.015625 C 112.441406 250.632812 92.449219 228.234375 92.449219 204.058594 Z M 632.042969 306.253906 C 614.726562 306.253906 600.6875 320.289062 600.6875 337.605469 C 600.6875 354.917969 614.726562 368.957031 632.042969 368.957031 C 649.363281 368.957031 663.402344 354.917969 663.402344 337.605469 C 663.402344 320.289062 649.363281 306.253906 632.042969 306.253906 Z M 632.042969 427.835938 C 614.726562 427.835938 600.6875 441.871094 600.6875 459.1875 C 600.6875 476.503906 614.726562 490.539062 632.042969 490.539062 C 649.363281 490.539062 663.402344 476.503906 663.402344 459.1875 C 663.402344 441.871094 649.363281 427.835938 632.042969 427.835938 Z M 632.042969 549.417969 C 614.726562 549.417969 600.6875 563.457031 600.6875 580.769531 C 600.6875 598.085938 614.726562 612.125 632.042969 612.125 C 649.363281 612.125 663.402344 598.085938 663.402344 580.769531 C 663.402344 563.457031 649.363281 549.417969 632.042969 549.417969 Z M 632.042969 549.417969 " fill-opacity="1" fill-rule="nonzero"/></svg>